<?xml version="1.0" encoding="UTF-8"?>
<svg id="Icons" xmlns="http://www.w3.org/2000/svg" viewBox="0 0 439.41 423.97">
  <defs>
    <style>
      .Lineas_Color {
        fill: none;
        stroke: #3e5160;
        stroke-linecap: round;
        stroke-linejoin: round;
        stroke-width: 12px;
      }
    </style>
  </defs>
  <path class="Lineas_Color" d="M150.44,338.54H45.71c-21.93,0-39.71,17.78-39.71,39.72,0,10.97,4.44,20.89,11.63,28.08,7.19,7.19,17.11,11.63,28.08,11.63h347.99c21.93,0,39.71-17.78,39.71-39.71,0-10.97-4.45-20.9-11.63-28.09-7.19-7.18-17.12-11.63-28.08-11.63h-104.73"/>
  <path class="Lineas_Color" d="M219.32,355.05c12.81,0,23.2,10.39,23.2,23.21s-10.39,23.2-23.2,23.2-23.21-10.39-23.21-23.2,10.39-23.21,23.21-23.21Z"/>
  <path class="Lineas_Color" d="M88.11,355.05c12.82,0,23.21,10.39,23.21,23.21s-10.39,23.2-23.21,23.2-23.2-10.39-23.2-23.2,10.39-23.21,23.2-23.21Z"/>
  <path class="Lineas_Color" d="M373.72,378.26c0,12.81-10.39,23.2-23.2,23.2s-23.21-10.39-23.21-23.2,10.39-23.21,23.21-23.21,23.2,10.39,23.2,23.21Z"/>
  <polyline class="Lineas_Color" points="237.47 34.45 237.66 34.45 237.66 6"/>
  <line class="Lineas_Color" x1="201.74" y1="6" x2="201.74" y2="34.45"/>
  <path class="Lineas_Color" d="M209.25,67.79h-3.37c-4.59,0-8.15-4.75-7.61-10.15h-.01l3.29-23.19h35.92l3.66,23.19c.54,5.4-3.02,10.15-7.61,10.15h-3.37"/>
  <polyline class="Lineas_Color" points="209.25 99.84 209.25 67.79 230.15 67.79 230.15 99.83"/>
  <polyline class="Lineas_Color" points="49.32 6 201.74 6 237.66 6 390.09 6"/>
  <path class="Lineas_Color" d="M235.17,111.22h30.99c30.6,0,55.42,14.81,55.42,45.42"/>
  <path class="Lineas_Color" d="M117.83,156.64c0-30.61,24.82-45.42,55.42-45.42h30.99"/>
  <path class="Lineas_Color" d="M235.17,111.22c0,8.54-6.93,15.46-15.47,15.46s-15.46-6.92-15.46-15.46c0-4.51,1.93-8.56,5.01-11.38,2.75-2.54,6.43-4.08,10.45-4.08s7.7,1.54,10.45,4.07c3.09,2.82,5.02,6.88,5.02,11.39Z"/>
  <polyline class="Lineas_Color" points="288.97 217.39 288.97 338.54 288.97 338.55 150.44 338.55 150.44 338.54 150.44 217.49 150.44 217.39"/>
  <polyline class="Lineas_Color" points="203.92 217.45 150.44 217.49 150.54 217.39 170.38 197.55"/>
  <polyline class="Lineas_Color" points="269.13 197.55 288.97 217.39 235.49 217.43"/>
  <polyline class="Lineas_Color" points="230.4 197.55 235.49 217.39 235.49 217.43 235.49 276.81 219.7 265.97 203.92 276.81 203.92 217.45 203.92 217.39 208.06 197.55"/>
  <polyline class="Lineas_Color" points="269.13 197.55 230.4 197.55 208.06 197.55 170.38 197.55"/>
  <line class="Lineas_Color" x1="252.05" y1="321.28" x2="272.42" y2="321.28"/>
</svg>