<?xml version="1.0" encoding="UTF-8"?>
<svg id="Info" xmlns="http://www.w3.org/2000/svg" viewBox="0 0 433.4 419.21">
  <defs>
    <style>
      .cls-1 {
        fill: #3e5160;
      }
    </style>
  </defs>
  <path class="cls-1" d="M184.91,419.21c-1.85,0-3.72-.35-5.52-1.08l-45.05-18.2c-6.35-2.58-9.96-9.02-8.77-15.67l5.93-33.3c.14-.76-.17-1.53-.82-2.05-8.19-6.57-15.75-13.95-22.48-21.94-.56-.67-1.47-.99-2.38-.84l-34.08,5.77c-6.67,1.13-13.17-2.38-15.79-8.55l-18.67-43.97c-2.6-6.16-.47-13.39,5.07-17.21l28.28-19.43c.68-.47,1.06-1.23.98-1.99-.52-5.16-.78-10.39-.78-15.54s.26-10.43.78-15.54c.08-.78-.29-1.54-.98-2.01l-28.32-19.46c-5.55-3.83-7.68-11.07-5.06-17.21l11.8-27.79c1.29-3.05,4.81-4.47,7.87-3.18,3.05,1.3,4.47,4.82,3.18,7.87l-11.8,27.79c-.4.94-.06,2.02.83,2.64l28.31,19.45c4.29,2.95,6.64,7.97,6.12,13.11-.48,4.72-.72,9.54-.72,14.34s.24,9.57.72,14.33c.52,5.12-1.82,10.13-6.12,13.09l-28.28,19.43c-.88.61-1.22,1.69-.82,2.64l18.67,43.96c.43,1.01,1.59,1.61,2.75,1.41l34.08-5.77c5.07-.86,10.27,1.03,13.56,4.94,6.23,7.39,13.23,14.23,20.81,20.31,4.07,3.26,6.04,8.44,5.13,13.52l-5.93,33.3c-.18,1.01.42,2.02,1.46,2.44l45.04,18.2c1.1.44,2.38.1,3.05-.83l19.92-27.63c2.97-4.14,8.02-6.42,13.18-5.92,9.75.94,19.66.94,29.47,0,5.15-.5,10.2,1.78,13.18,5.94l19.91,27.58c.67.92,1.95,1.27,3.04.83l45.05-18.22c1.03-.42,1.62-1.42,1.44-2.44l-5.91-33.25c-.9-5.08,1.06-10.26,5.11-13.52,7.6-6.1,14.61-12.93,20.82-20.31,3.3-3.91,8.5-5.81,13.57-4.94l34.11,5.78c1.17.2,2.32-.4,2.75-1.42l18.67-43.95c.4-.94.06-2.02-.83-2.63l-28.32-19.46c-4.29-2.96-6.63-7.98-6.11-13.1.95-9.48.95-19.13,0-28.67-.52-5.11,1.82-10.13,6.1-13.09l28.3-19.44c.88-.6,1.22-1.68.82-2.62l-18.66-43.98c-.43-1.01-1.59-1.61-2.75-1.41l-34.09,5.78c-5.06.86-10.26-1.03-13.56-4.95-6.25-7.41-13.25-14.24-20.81-20.31-4.06-3.27-6.02-8.45-5.12-13.52l5.92-33.3c.18-1.02-.41-2.01-1.44-2.43l-45.05-18.21c-1.1-.44-2.38-.1-3.04.82l-19.95,27.65c-2.98,4.14-8.03,6.4-13.18,5.91-9.74-.94-19.66-.94-29.47,0-5.12.49-10.17-1.77-13.16-5.91l-19.92-27.62c-.66-.91-1.94-1.26-3.03-.82l-27.66,11.18c-3.07,1.24-6.57-.24-7.81-3.31-1.24-3.07.24-6.57,3.31-7.81l27.66-11.18c6.24-2.52,13.34-.5,17.26,4.91l19.93,27.62c.5.69,1.38,1.08,2.29.99,10.57-1.01,21.26-1.01,31.76,0,.92.09,1.8-.29,2.3-.98l19.94-27.64c3.9-5.43,11.01-7.47,17.27-4.93l45.05,18.21c6.25,2.52,9.93,9.1,8.76,15.66l-5.92,33.29c-.14.77.17,1.54.82,2.06,8.16,6.55,15.72,13.93,22.47,21.93.57.68,1.48,1,2.37.85l34.1-5.78c6.68-1.13,13.17,2.39,15.79,8.54l18.66,43.98c2.62,6.15.49,13.39-5.07,17.21l-28.29,19.43c-.67.46-1.05,1.23-.97,2,1.03,10.35,1.03,20.8,0,31.08-.08.77.3,1.54.98,2.01l28.31,19.45c5.55,3.82,7.68,11.05,5.08,17.2l-18.67,43.97c-2.62,6.16-9.12,9.68-15.79,8.55l-34.12-5.78c-.89-.15-1.82.18-2.38.84-6.71,7.97-14.28,15.35-22.48,21.93-.64.51-.94,1.29-.81,2.06l5.91,33.26c1.16,6.55-2.53,13.13-8.76,15.65l-45.05,18.22c-6.25,2.53-13.36.5-17.27-4.93l-19.92-27.6c-.51-.71-1.38-1.08-2.29-1-10.57,1.01-21.25,1.01-31.75,0-.91-.09-1.79.29-2.29.98l-19.94,27.65c-2.8,3.86-7.2,6-11.76,6Z"/>
  <path class="cls-1" d="M340.67,164.66c-.72,0-1.44-.13-2.15-.4l-103.75-39.87-103.76,39.87c-3.09,1.19-6.56-.35-7.75-3.45-1.19-3.09.35-6.56,3.45-7.75l105.91-40.7c1.39-.53,2.92-.53,4.31,0l105.9,40.7c3.09,1.19,4.64,4.66,3.45,7.75-.92,2.39-3.19,3.85-5.6,3.85Z"/>
  <path class="cls-1" d="M234.77,338.44c-.72,0-1.44-.13-2.15-.4l-105.91-40.69c-2.32-.89-3.85-3.12-3.85-5.6v-133.09c0-1.98.97-3.83,2.6-4.95,1.63-1.12,3.71-1.36,5.55-.66l105.91,40.69c3.09,1.19,4.64,4.66,3.45,7.75-1.19,3.09-4.66,4.64-7.75,3.45l-97.76-37.56v120.23l102.06,39.21c3.09,1.19,4.64,4.66,3.45,7.75-.92,2.39-3.19,3.85-5.6,3.85Z"/>
  <path class="cls-1" d="M234.77,338.44c-1.2,0-2.38-.36-3.4-1.05-1.63-1.12-2.6-2.97-2.6-4.95v-133.09c0-2.48,1.53-4.71,3.85-5.6l105.9-40.69c1.84-.71,3.92-.46,5.55.66,1.63,1.12,2.6,2.97,2.6,4.95v133.09c0,2.48-1.53,4.71-3.85,5.6l-105.9,40.69c-.7.27-1.43.4-2.15.4ZM240.77,203.48v120.23l93.9-36.08v-120.23l-93.9,36.08Z"/>
  <path class="cls-1" d="M181.82,219.9c-3.31,0-6-2.69-6-6v-34.89c0-2.44,1.48-4.64,3.73-5.56l101.84-41.55c3.07-1.25,6.57.22,7.82,3.29,1.25,3.07-.22,6.57-3.29,7.82l-98.11,40.03v30.87c0,3.31-2.69,6-6,6Z"/>
  <path class="cls-1" d="M304.38,289.17c-2.4,0-4.67-1.45-5.59-3.82-1.2-3.09.32-6.57,3.41-7.77l17.26-6.73c3.09-1.2,6.57.32,7.77,3.41,1.2,3.09-.32,6.57-3.41,7.77l-17.26,6.73c-.72.28-1.45.41-2.18.41Z"/>
  <path class="cls-1" d="M86.94,159.09c-11.89,0-23.87-2.66-35.02-8.16-6.28-3.09-12.17-7.04-17.48-11.72C1.55,110.2-1.61,59.83,27.4,26.93c2.19-2.48,5.98-2.72,8.47-.53,2.49,2.19,2.72,5.98.53,8.47-24.63,27.93-21.95,70.7,5.98,95.34,4.51,3.98,9.51,7.33,14.84,9.96,27.26,13.44,60.37,6.89,80.5-15.94,17.59-19.95,21.84-48.48,10.81-72.69-3.92-8.65-9.56-16.27-16.79-22.65-13.73-12.12-31.37-18.05-49.65-16.7-3.3.23-6.18-2.24-6.42-5.54-.24-3.3,2.24-6.18,5.54-6.42,21.53-1.58,42.29,5.4,58.47,19.67,8.51,7.51,15.16,16.49,19.78,26.69,12.98,28.5,7.98,62.1-12.74,85.59-15.47,17.54-37.45,26.92-59.78,26.92Z"/>
  <path class="cls-1" d="M38.46,62.8c-2.68,0-5.12-1.81-5.81-4.53l-5.09-20.08-20.08,5.09c-3.21.81-6.48-1.13-7.29-4.34-.81-3.21,1.13-6.48,4.34-7.29l25.9-6.56c3.21-.81,6.48,1.13,7.29,4.34l6.56,25.9c.81,3.21-1.13,6.48-4.34,7.29-.49.12-.99.19-1.48.19Z"/>
  <path class="cls-1" d="M89.96,73.08c-.45,0-.9-.05-1.36-.16-3.23-.75-5.24-3.97-4.49-7.2l9.19-39.7c.75-3.23,3.97-5.24,7.2-4.49,3.23.75,5.24,3.97,4.49,7.2l-9.19,39.7c-.64,2.77-3.11,4.65-5.84,4.65Z"/>
  <path class="cls-1" d="M112.36,110.84c-1.54,0-3.07-.59-4.24-1.76l-16.25-16.24c-2.34-2.34-2.35-6.14,0-8.49,2.34-2.34,6.14-2.34,8.49,0l16.25,16.24c2.34,2.34,2.35,6.14,0,8.49-1.17,1.17-2.71,1.76-4.24,1.76Z"/>
  <path class="cls-1" d="M89.95,67.08c-.93-.22-1.9-.33-2.89-.33-7.07,0-12.8,5.73-12.8,12.8s5.73,12.8,12.8,12.8c3.53,0,6.73-1.43,9.05-3.75,2.32-2.32,3.75-5.52,3.75-9.05,0-6.08-4.23-11.16-9.91-12.47Z"/>
</svg>